{
  "images": [
    {"uri": "data:image/png;base64,"},
    {"uri": "data:image/png;base64,"},
    {"uri": "data:image/png;base64,"},
    {"uri": "data:image/png;base64,"},
    {"uri": "data:image/png;base64,"},
    {"uri": "data:image/png;base64,"},
    {"uri": "data:image/png;base64,"},
    {"uri": "data:image/png;base64,"},
    {"uri": "data:image/png;base64,"},
    {"uri": "data:image/png;base64,"},
    {"uri": "data:image/png;base64,"},
    {"uri": "data:image/png;base64,"},
    {"uri": "data:image/png;base64,"},
    {"uri": "data:image/png;base64,"}
  ],
  "accessors": [
    {
      "componentType": 5126,
      "min": [
        -10,
        -20,
        -1
      ],
      "byteOffset": 0,
      "bufferView": 0,
      "max": [
        10,
        20,
        1
      ],
      "count": 144,
      "type": "VEC3"
    },
    {
      "componentType": 5126,
      "byteOffset": 0,
      "bufferView": 1,
      "count": 144,
      "type": "VEC3"
    },
    {
      "componentType": 5126,
      "byteOffset": 0,
      "bufferView": 2,
      "count": 144,
      "type": "VEC2"
    },
    {
      "componentType": 5126,
      "byteOffset": 0,
      "bufferView": 2,
      "count": 144,
      "type": "VEC2"
    },
    {
      "componentType": 5126,
      "min": [
        -9,
        -14.5,
        -1
      ],
      "byteOffset": 0,
      "bufferView": 3,
      "max": [
        9,
        14.5,
        1
      ],
      "count": 192,
      "type": "VEC3"
    },
    {
      "componentType": 5126,
      "byteOffset": 0,
      "bufferView": 4,
      "count": 192,
      "type": "VEC3"
    },
    {
      "componentType": 5126,
      "byteOffset": 0,
      "bufferView": 5,
      "count": 192,
      "type": "VEC2"
    },
    {
      "componentType": 5126,
      "byteOffset": 0,
      "bufferView": 5,
      "count": 192,
      "type": "VEC2"
    },
    {
      "componentType": 5126,
      "min": [
        -11,
        -8,
        -0.5
      ],
      "byteOffset": 0,
      "bufferView": 6,
      "max": [
        11,
        8,
        0.5
      ],
      "count": 132,
      "type": "VEC3"
    },
    {
      "componentType": 5126,
      "byteOffset": 0,
      "bufferView": 7,
      "count": 132,
      "type": "VEC3"
    },
    {
      "componentType": 5126,
      "byteOffset": 0,
      "bufferView": 8,
      "count": 132,
      "type": "VEC2"
    },
    {
      "componentType": 5126,
      "byteOffset": 0,
      "bufferView": 8,
      "count": 132,
      "type": "VEC2"
    },
    {
      "componentType": 5126,
      "min": [
        -8,
        -4,
        -0.5
      ],
      "byteOffset": 0,
      "bufferView": 9,
      "max": [
        8,
        4,
        0.5
      ],
      "count": 36,
      "type": "VEC3"
    },
    {
      "componentType": 5126,
      "byteOffset": 0,
      "bufferView": 10,
      "count": 36,
      "type": "VEC3"
    },
    {
      "componentType": 5126,
      "byteOffset": 0,
      "bufferView": 11,
      "count": 36,
      "type": "VEC2"
    },
    {
      "componentType": 5126,
      "byteOffset": 0,
      "bufferView": 11,
      "count": 36,
      "type": "VEC2"
    },
    {
      "componentType": 5126,
      "min": [
        -8,
        -4,
        -0.5
      ],
      "byteOffset": 0,
      "bufferView": 12,
      "max": [
        8,
        4,
        0.5
      ],
      "count": 36,
      "type": "VEC3"
    },
    {
      "componentType": 5126,
      "byteOffset": 0,
      "bufferView": 13,
      "count": 36,
      "type": "VEC3"
    },
    {
      "componentType": 5126,
      "byteOffset": 0,
      "bufferView": 14,
      "count": 36,
      "type": "VEC2"
    },
    {
      "componentType": 5126,
      "byteOffset": 0,
      "bufferView": 14,
      "count": 36,
      "type": "VEC2"
    },
    {
      "componentType": 5126,
      "min": [
        -8,
        -4,
        -0.5
      ],
      "byteOffset": 0,
      "bufferView": 15,
      "max": [
        8,
        4,
        0.5
      ],
      "count": 36,
      "type": "VEC3"
    },
    {
      "componentType": 5126,
      "byteOffset": 0,
      "bufferView": 16,
      "count": 36,
      "type": "VEC3"
    },
    {
      "componentType": 5126,
      "byteOffset": 0,
      "bufferView": 17,
      "count": 36,
      "type": "VEC2"
    },
    {
      "componentType": 5126,
      "byteOffset": 0,
      "bufferView": 17,
      "count": 36,
      "type": "VEC2"
    },
    {
      "componentType": 5126,
      "min": [
        -8,
        -5.5,
        -0.5
      ],
      "byteOffset": 0,
      "bufferView": 18,
      "max": [
        8,
        5.5,
        0.5
      ],
      "count": 36,
      "type": "VEC3"
    },
    {
      "componentType": 5126,
      "byteOffset": 0,
      "bufferView": 19,
      "count": 36,
      "type": "VEC3"
    },
    {
      "componentType": 5126,
      "byteOffset": 0,
      "bufferView": 20,
      "count": 36,
      "type": "VEC2"
    },
    {
      "componentType": 5126,
      "byteOffset": 0,
      "bufferView": 20,
      "count": 36,
      "type": "VEC2"
    }
  ],
  "textures": [
    {
      "source": 0,
      "sampler": 0
    },
    {
      "source": 1,
      "sampler": 0
    },
    {
      "source": 2,
      "sampler": 0
    },
    {
      "source": 3,
      "sampler": 0
    },
    {
      "source": 4,
      "sampler": 0
    },
    {
      "source": 5,
      "sampler": 0
    },
    {
      "source": 6,
      "sampler": 0
    },
    {
      "source": 7,
      "sampler": 0
    },
    {
      "source": 8,
      "sampler": 0
    },
    {
      "source": 9,
      "sampler": 0
    },
    {
      "source": 10,
      "sampler": 0
    },
    {
      "source": 11,
      "sampler": 0
    },
    {
      "source": 12,
      "sampler": 0
    },
    {
      "source": 13,
      "sampler": 0
    }
  ],
  "buffers": [
    {
      "byteLength": 1728,
      "uri": "data:application/octet-stream;base64,"
    },
    {
      "byteLength": 1728,
      "uri": "data:application/octet-stream;base64,"
    },
    {
      "byteLength": 1152,
      "uri": "data:application/octet-stream;base64,"
    },
    {
      "byteLength": 2304,
      "uri": "data:application/octet-stream;base64,"
    },
    {
      "byteLength": 2304,
      "uri": "data:application/octet-stream;base64,"
    },
    {
      "byteLength": 1536,
      "uri": "data:application/octet-stream;base64,"
    },
    {
      "byteLength": 1584,
      "uri": "data:application/octet-stream;base64,"
    },
    {
      "byteLength": 1584,
      "uri": "data:application/octet-stream;base64,"
    },
    {
      "byteLength": 1056,
      "uri": "data:application/octet-stream;base64,"
    },
    {
      "byteLength": 432,
      "uri": "data:application/octet-stream;base64,"
    },
    {
      "byteLength": 432,
      "uri": "data:application/octet-stream;base64,"
    },
    {
      "byteLength": 288,
      "uri": "data:application/octet-stream;base64,"
    },
    {
      "byteLength": 432,
      "uri": "data:application/octet-stream;base64,"
    },
    {
      "byteLength": 432,
      "uri": "data:application/octet-stream;base64,"
    },
    {
      "byteLength": 288,
      "uri": "data:application/octet-stream;base64,"
    },
    {
      "byteLength": 432,
      "uri": "data:application/octet-stream;base64,"
    },
    {
      "byteLength": 432,
      "uri": "data:application/octet-stream;base64,"
    },
    {
      "byteLength": 288,
      "uri": "data:application/octet-stream;base64,"
    },
    {
      "byteLength": 432,
      "uri": "data:application/octet-stream;base64,"
    },
    {
      "byteLength": 432,
      "uri": "data:application/octet-stream;base64,"
    },
    {
      "byteLength": 288,
      "uri": "data:application/octet-stream;base64,"
    }
  ],
  "bufferViews": [
    {
      "byteOffset": 0,
      "byteLength": 1728,
      "buffer": 0,
      "byteStride": 12,
      "target": 34962
    },
    {
      "byteOffset": 0,
      "byteLength": 1728,
      "buffer": 1,
      "byteStride": 12,
      "target": 34962
    },
    {
      "byteOffset": 0,
      "byteLength": 1152,
      "buffer": 2,
      "byteStride": 8,
      "target": 34962
    },
    {
      "byteOffset": 0,
      "byteLength": 2304,
      "buffer": 3,
      "byteStride": 12,
      "target": 34962
    },
    {
      "byteOffset": 0,
      "byteLength": 2304,
      "buffer": 4,
      "byteStride": 12,
      "target": 34962
    },
    {
      "byteOffset": 0,
      "byteLength": 1536,
      "buffer": 5,
      "byteStride": 8,
      "target": 34962
    },
    {
      "byteOffset": 0,
      "byteLength": 1584,
      "buffer": 6,
      "byteStride": 12,
      "target": 34962
    },
    {
      "byteOffset": 0,
      "byteLength": 1584,
      "buffer": 7,
      "byteStride": 12,
      "target": 34962
    },
    {
      "byteOffset": 0,
      "byteLength": 1056,
      "buffer": 8,
      "byteStride": 8,
      "target": 34962
    },
    {
      "byteOffset": 0,
      "byteLength": 432,
      "buffer": 9,
      "byteStride": 12,
      "target": 34962
    },
    {
      "byteOffset": 0,
      "byteLength": 432,
      "buffer": 10,
      "byteStride": 12,
      "target": 34962
    },
    {
      "byteOffset": 0,
      "byteLength": 288,
      "buffer": 11,
      "byteStride": 8,
      "target": 34962
    },
    {
      "byteOffset": 0,
      "byteLength": 432,
      "buffer": 12,
      "byteStride": 12,
      "target": 34962
    },
    {
      "byteOffset": 0,
      "byteLength": 432,
      "buffer": 13,
      "byteStride": 12,
      "target": 34962
    },
    {
      "byteOffset": 0,
      "byteLength": 288,
      "buffer": 14,
      "byteStride": 8,
      "target": 34962
    },
    {
      "byteOffset": 0,
      "byteLength": 432,
      "buffer": 15,
      "byteStride": 12,
      "target": 34962
    },
    {
      "byteOffset": 0,
      "byteLength": 432,
      "buffer": 16,
      "byteStride": 12,
      "target": 34962
    },
    {
      "byteOffset": 0,
      "byteLength": 288,
      "buffer": 17,
      "byteStride": 8,
      "target": 34962
    },
    {
      "byteOffset": 0,
      "byteLength": 432,
      "buffer": 18,
      "byteStride": 12,
      "target": 34962
    },
    {
      "byteOffset": 0,
      "byteLength": 432,
      "buffer": 19,
      "byteStride": 12,
      "target": 34962
    },
    {
      "byteOffset": 0,
      "byteLength": 288,
      "buffer": 20,
      "byteStride": 8,
      "target": 34962
    }
  ],
  "samplers": [{
    "minFilter": 9728,
    "wrapT": 33071,
    "wrapS": 33071,
    "magFilter": 9728
  }],
  "scene": 0,
  "nodes": [
    {
      "children": [
        1,
        2
      ],
      "rotation": [
        0,
        -1,
        0,
        -4.371138828673793E-8
      ],
      "translation": [
        0,
        0,
        0
      ],
      "name": "Root-Global",
      "scale": [
        -1,
        1,
        1
      ]
    },
    {
      "rotation": [
        0,
        0,
        0,
        1
      ],
      "translation": [
        0,
        0,
        0
      ],
      "name": "Root-Local",
      "scale": [
        1,
        1,
        1
      ]
    },
    {
      "children": [
        3,
        4,
        6,
        8,
        10
      ],
      "rotation": [
        0,
        0,
        0,
        1
      ],
      "translation": [
        0,
        0,
        0
      ],
      "name": "Control-Global",
      "scale": [
        1,
        1,
        1
      ]
    },
    {
      "rotation": [
        0,
        0,
        0,
        1
      ],
      "translation": [
        0,
        0,
        0
      ],
      "name": "Control-Local",
      "scale": [
        1,
        1,
        1
      ]
    },
    {
      "children": [5],
      "rotation": [
        -0.3826834559440613,
        0,
        0,
        0.9238795042037964
      ],
      "translation": [
        0,
        0,
        11
      ],
      "name": "Frame_Back-Global",
      "scale": [
        1,
        1,
        1
      ]
    },
    {
      "rotation": [
        0,
        0,
        0,
        1
      ],
      "translation": [
        0,
        20.000003814697266,
        1
      ],
      "name": "Frame_Back-Local",
      "scale": [
        1,
        1,
        1
      ],
      "mesh": 0
    },
    {
      "children": [7],
      "rotation": [
        0.537299633026123,
        0,
        0,
        0.843391478061676
      ],
      "translation": [
        0,
        0,
        -12
      ],
      "name": "Frame_Front-Global",
      "scale": [
        1,
        1,
        1
      ]
    },
    {
      "rotation": [
        0,
        0,
        0,
        1
      ],
      "translation": [
        0,
        14.500003814697266,
        -1
      ],
      "name": "Frame_Front-Local",
      "scale": [
        1,
        1,
        1
      ],
      "mesh": 1
    },
    {
      "children": [9],
      "rotation": [
        -0.08715539425611496,
        0,
        -0,
        -0.9961947202682495
      ],
      "translation": [
        0,
        3.943889617919922,
        -7.794346332550049
      ],
      "name": "FrameJoints01-Global",
      "scale": [
        1,
        1,
        1
      ]
    },
    {
      "rotation": [
        0,
        0,
        0,
        1
      ],
      "translation": [
        0,
        6.5,
        0
      ],
      "name": "FrameJoints01-Local",
      "scale": [
        1,
        1,
        1
      ],
      "mesh": 2
    },
    {
      "children": [
        11,
        12
      ],
      "rotation": [
        -0.7372773289680481,
        0,
        0,
        0.6755902171134949
      ],
      "translation": [
        0,
        11.985037803649902,
        11.916088104248047
      ],
      "name": "Cloth01-Global",
      "scale": [
        1,
        1,
        1
      ]
    },
    {
      "rotation": [
        0,
        0,
        0,
        1
      ],
      "translation": [
        0,
        4,
        0.5
      ],
      "name": "Cloth01-Local",
      "scale": [
        1,
        1,
        1
      ],
      "mesh": 3
    },
    {
      "children": [
        13,
        14
      ],
      "rotation": [
        -0.1305263191461563,
        0,
        0,
        -0.9914448261260986
      ],
      "translation": [
        0,
        8,
        9.5367431640625E-7
      ],
      "name": "Cloth02-Global",
      "scale": [
        1,
        1,
        1
      ]
    },
    {
      "rotation": [
        0,
        0,
        0,
        1
      ],
      "translation": [
        0,
        4,
        0.5
      ],
      "name": "Cloth02-Local",
      "scale": [
        1,
        1,
        1
      ],
      "mesh": 4
    },
    {
      "children": [
        15,
        16
      ],
      "rotation": [
        -0.3007059097290039,
        0,
        0,
        -0.9537169933319092
      ],
      "translation": [
        0,
        8,
        -9.5367431640625E-7
      ],
      "name": "Cloth03-Global",
      "scale": [
        1,
        1,
        1
      ]
    },
    {
      "rotation": [
        0,
        0,
        0,
        1
      ],
      "translation": [
        0,
        4,
        0.5
      ],
      "name": "Cloth03-Local",
      "scale": [
        1,
        1,
        1
      ],
      "mesh": 5
    },
    {
      "children": [17],
      "rotation": [
        -0.1096198558807373,
        0,
        0,
        -0.9939736127853394
      ],
      "translation": [
        0,
        8,
        -9.5367431640625E-7
      ],
      "name": "Cloth04-Global",
      "scale": [
        1,
        1,
        1
      ]
    },
    {
      "rotation": [
        0,
        0,
        0,
        1
      ],
      "translation": [
        0,
        5.5,
        0.5
      ],
      "name": "Cloth04-Local",
      "scale": [
        1,
        1,
        1
      ],
      "mesh": 6
    }
  ],
  "materials": [
    {
      "name": "Frame_Back-Material",
      "emissiveTexture": {
        "index": 1,
        "texCoord": 1
      },
      "pbrMetallicRoughness": {
        "baseColorTexture": {"index": 0},
        "metallicFactor": 0,
        "roughnessFactor": 1
      },
      "emissiveFactor": [
        1,
        1,
        1
      ]
    },
    {
      "name": "Frame_Front-Material",
      "emissiveTexture": {
        "index": 3,
        "texCoord": 1
      },
      "pbrMetallicRoughness": {
        "baseColorTexture": {"index": 2},
        "metallicFactor": 0,
        "roughnessFactor": 1
      },
      "emissiveFactor": [
        1,
        1,
        1
      ]
    },
    {
      "name": "FrameJoints-Material",
      "emissiveTexture": {
        "index": 5,
        "texCoord": 1
      },
      "pbrMetallicRoughness": {
        "baseColorTexture": {"index": 4},
        "metallicFactor": 0,
        "roughnessFactor": 1
      },
      "emissiveFactor": [
        1,
        1,
        1
      ]
    },
    {
      "name": "Cloth01-Material",
      "emissiveTexture": {
        "index": 7,
        "texCoord": 1
      },
      "pbrMetallicRoughness": {
        "baseColorTexture": {"index": 6},
        "metallicFactor": 0,
        "roughnessFactor": 1
      },
      "emissiveFactor": [
        1,
        1,
        1
      ]
    },
    {
      "name": "Cloth01-Material",
      "emissiveTexture": {
        "index": 9,
        "texCoord": 1
      },
      "pbrMetallicRoughness": {
        "baseColorTexture": {"index": 8},
        "metallicFactor": 0,
        "roughnessFactor": 1
      },
      "emissiveFactor": [
        1,
        1,
        1
      ]
    },
    {
      "name": "Cloth01-Material",
      "emissiveTexture": {
        "index": 11,
        "texCoord": 1
      },
      "pbrMetallicRoughness": {
        "baseColorTexture": {"index": 10},
        "metallicFactor": 0,
        "roughnessFactor": 1
      },
      "emissiveFactor": [
        1,
        1,
        1
      ]
    },
    {
      "name": "Cloth02-Material",
      "emissiveTexture": {
        "index": 13,
        "texCoord": 1
      },
      "pbrMetallicRoughness": {
        "baseColorTexture": {"index": 12},
        "metallicFactor": 0,
        "roughnessFactor": 1
      },
      "emissiveFactor": [
        1,
        1,
        1
      ]
    }
  ],
  "animations": [],
  "scenes": [{"nodes": [0]}],
  "asset": {
    "generator": "VoxEdit Beta 5e8a22ed",
    "version": "2.0"
  },
  "meshes": [
    {
      "primitives": [{
        "mode": 4,
        "material": 0,
        "attributes": {
          "POSITION": 0,
          "TEXCOORD_1": 3,
          "TEXCOORD_0": 2,
          "NORMAL": 1
        }
      }],
      "name": "Frame_Back-Mesh"
    },
    {
      "primitives": [{
        "mode": 4,
        "material": 1,
        "attributes": {
          "POSITION": 4,
          "TEXCOORD_1": 7,
          "TEXCOORD_0": 6,
          "NORMAL": 5
        }
      }],
      "name": "Frame_Front-Mesh"
    },
    {
      "primitives": [{
        "mode": 4,
        "material": 2,
        "attributes": {
          "POSITION": 8,
          "TEXCOORD_1": 11,
          "TEXCOORD_0": 10,
          "NORMAL": 9
        }
      }],
      "name": "FrameJoints-Mesh"
    },
    {
      "primitives": [{
        "mode": 4,
        "material": 3,
        "attributes": {
          "POSITION": 12,
          "TEXCOORD_1": 15,
          "TEXCOORD_0": 14,
          "NORMAL": 13
        }
      }],
      "name": "Cloth01-Mesh"
    },
    {
      "primitives": [{
        "mode": 4,
        "material": 4,
        "attributes": {
          "POSITION": 16,
          "TEXCOORD_1": 19,
          "TEXCOORD_0": 18,
          "NORMAL": 17
        }
      }],
      "name": "Cloth01-Mesh"
    },
    {
      "primitives": [{
        "mode": 4,
        "material": 5,
        "attributes": {
          "POSITION": 20,
          "TEXCOORD_1": 23,
          "TEXCOORD_0": 22,
          "NORMAL": 21
        }
      }],
      "name": "Cloth01-Mesh"
    },
    {
      "primitives": [{
        "mode": 4,
        "material": 6,
        "attributes": {
          "POSITION": 24,
          "TEXCOORD_1": 27,
          "TEXCOORD_0": 26,
          "NORMAL": 25
        }
      }],
      "name": "Cloth02-Mesh"
    }
  ]
}