{
  "images": [
    {"uri": "data:image/png;base64,"},
    {"uri": "data:image/png;base64,"},
    {"uri": "data:image/png;base64,"},
    {"uri": "data:image/png;base64,"},
    {"uri": "data:image/png;base64,"},
    {"uri": "data:image/png;base64,"}
  ],
  "accessors": [
    {
      "componentType": 5126,
      "min": [
        -2,
        -2,
        -6
      ],
      "byteOffset": 0,
      "bufferView": 0,
      "max": [
        2,
        2,
        6
      ],
      "count": 144,
      "type": "VEC3"
    },
    {
      "componentType": 5126,
      "byteOffset": 0,
      "bufferView": 1,
      "count": 144,
      "type": "VEC3"
    },
    {
      "componentType": 5126,
      "byteOffset": 0,
      "bufferView": 2,
      "count": 144,
      "type": "VEC2"
    },
    {
      "componentType": 5126,
      "byteOffset": 0,
      "bufferView": 2,
      "count": 144,
      "type": "VEC2"
    },
    {
      "componentType": 5126,
      "min": [
        -1,
        -1,
        -1.5
      ],
      "byteOffset": 0,
      "bufferView": 3,
      "max": [
        1,
        1,
        1.5
      ],
      "count": 36,
      "type": "VEC3"
    },
    {
      "componentType": 5126,
      "byteOffset": 0,
      "bufferView": 4,
      "count": 36,
      "type": "VEC3"
    },
    {
      "componentType": 5126,
      "byteOffset": 0,
      "bufferView": 5,
      "count": 36,
      "type": "VEC2"
    },
    {
      "componentType": 5126,
      "byteOffset": 0,
      "bufferView": 5,
      "count": 36,
      "type": "VEC2"
    },
    {
      "componentType": 5126,
      "min": [
        -3,
        -2.5,
        -16
      ],
      "byteOffset": 0,
      "bufferView": 6,
      "max": [
        3,
        2.5,
        16
      ],
      "count": 396,
      "type": "VEC3"
    },
    {
      "componentType": 5126,
      "byteOffset": 0,
      "bufferView": 7,
      "count": 396,
      "type": "VEC3"
    },
    {
      "componentType": 5126,
      "byteOffset": 0,
      "bufferView": 8,
      "count": 396,
      "type": "VEC2"
    },
    {
      "componentType": 5126,
      "byteOffset": 0,
      "bufferView": 8,
      "count": 396,
      "type": "VEC2"
    }
  ],
  "textures": [
    {
      "source": 0,
      "sampler": 0
    },
    {
      "source": 1,
      "sampler": 0
    },
    {
      "source": 2,
      "sampler": 0
    },
    {
      "source": 3,
      "sampler": 0
    },
    {
      "source": 4,
      "sampler": 0
    },
    {
      "source": 5,
      "sampler": 0
    }
  ],
  "buffers": [
    {
      "byteLength": 1728,
      "uri": "data:application/octet-stream;base64,"
    },
    {
      "byteLength": 1728,
      "uri": "data:application/octet-stream;base64,"
    },
    {
      "byteLength": 1152,
      "uri": "data:application/octet-stream;base64,"
    },
    {
      "byteLength": 432,
      "uri": "data:application/octet-stream;base64,"
    },
    {
      "byteLength": 432,
      "uri": "data:application/octet-stream;base64,"
    },
    {
      "byteLength": 288,
      "uri": "data:application/octet-stream;base64,"
    },
    {
      "byteLength": 4752,
      "uri": "data:application/octet-stream;base64,"
    },
    {
      "byteLength": 4752,
      "uri": "data:application/octet-stream;base64,"
    },
    {
      "byteLength": 3168,
      "uri": "data:application/octet-stream;base64,"
    }
  ],
  "bufferViews": [
    {
      "byteOffset": 0,
      "byteLength": 1728,
      "buffer": 0,
      "byteStride": 12,
      "target": 34962
    },
    {
      "byteOffset": 0,
      "byteLength": 1728,
      "buffer": 1,
      "byteStride": 12,
      "target": 34962
    },
    {
      "byteOffset": 0,
      "byteLength": 1152,
      "buffer": 2,
      "byteStride": 8,
      "target": 34962
    },
    {
      "byteOffset": 0,
      "byteLength": 432,
      "buffer": 3,
      "byteStride": 12,
      "target": 34962
    },
    {
      "byteOffset": 0,
      "byteLength": 432,
      "buffer": 4,
      "byteStride": 12,
      "target": 34962
    },
    {
      "byteOffset": 0,
      "byteLength": 288,
      "buffer": 5,
      "byteStride": 8,
      "target": 34962
    },
    {
      "byteOffset": 0,
      "byteLength": 4752,
      "buffer": 6,
      "byteStride": 12,
      "target": 34962
    },
    {
      "byteOffset": 0,
      "byteLength": 4752,
      "buffer": 7,
      "byteStride": 12,
      "target": 34962
    },
    {
      "byteOffset": 0,
      "byteLength": 3168,
      "buffer": 8,
      "byteStride": 8,
      "target": 34962
    }
  ],
  "samplers": [{
    "minFilter": 9728,
    "wrapT": 33071,
    "wrapS": 33071,
    "magFilter": 9728
  }],
  "scene": 0,
  "nodes": [
    {
      "children": [
        1,
        2
      ],
      "rotation": [
        0,
        -1,
        0,
        -4.371138828673793E-8
      ],
      "translation": [
        0,
        0,
        0
      ],
      "name": "Root-Global",
      "scale": [
        -1,
        1,
        1
      ]
    },
    {
      "rotation": [
        0,
        0,
        0,
        1
      ],
      "translation": [
        0,
        0,
        0
      ],
      "name": "Root-Local",
      "scale": [
        1,
        1,
        1
      ]
    },
    {
      "children": [
        3,
        4
      ],
      "rotation": [
        0,
        0,
        0,
        -1
      ],
      "translation": [
        0,
        25,
        -0
      ],
      "name": "Controller-Global",
      "scale": [
        1,
        1,
        1
      ]
    },
    {
      "rotation": [
        0,
        0,
        0,
        1
      ],
      "translation": [
        0,
        0,
        0
      ],
      "name": "Controller-Local",
      "scale": [
        1,
        1,
        1
      ]
    },
    {
      "children": [
        5,
        6,
        32,
        38
      ],
      "rotation": [
        0,
        0,
        0,
        1
      ],
      "translation": [
        -0.13362351059913635,
        0,
        -0.2865194082260132
      ],
      "name": "Hip-Global",
      "scale": [
        1,
        1,
        1
      ]
    },
    {
      "rotation": [
        0,
        0,
        0,
        1
      ],
      "translation": [
        0,
        0.5000001788139343,
        0
      ],
      "name": "Hip-Local",
      "scale": [
        1,
        1,
        1
      ]
    },
    {
      "children": [
        7,
        8
      ],
      "rotation": [
        0,
        0,
        0,
        1
      ],
      "translation": [
        -0,
        2.5,
        -0
      ],
      "name": "Belly-Global",
      "scale": [
        1,
        1,
        1
      ]
    },
    {
      "rotation": [
        0,
        0,
        0,
        1
      ],
      "translation": [
        0,
        -1.9999998807907104,
        0
      ],
      "name": "Belly-Local",
      "scale": [
        1,
        1,
        1
      ]
    },
    {
      "children": [
        9,
        10,
        16,
        30
      ],
      "rotation": [
        0,
        0,
        0,
        1
      ],
      "translation": [
        -2.384185791015625E-7,
        4,
        -2.384185791015625E-7
      ],
      "name": "Chest-Global",
      "scale": [
        1,
        1,
        1
      ]
    },
    {
      "rotation": [
        0,
        0,
        0,
        1
      ],
      "translation": [
        0,
        7,
        0
      ],
      "name": "Chest-Local",
      "scale": [
        1,
        1,
        1
      ]
    },
    {
      "children": [
        11,
        12
      ],
      "rotation": [
        0,
        0,
        0,
        1
      ],
      "translation": [
        -7.240797996520996,
        8.777605056762695,
        0.025720596313476562
      ],
      "name": "Left_Arm-Global",
      "scale": [
        1,
        1,
        1
      ]
    },
    {
      "rotation": [
        0,
        0,
        0,
        -1
      ],
      "translation": [
        -3.999999761581421,
        1.5,
        0
      ],
      "name": "Left_Arm-Local",
      "scale": [
        1,
        1,
        1
      ]
    },
    {
      "children": [
        13,
        14
      ],
      "rotation": [
        0,
        0,
        0,
        1
      ],
      "translation": [
        -11,
        0,
        -0.5
      ],
      "name": "Left_Forearm-Global",
      "scale": [
        1,
        1,
        1
      ]
    },
    {
      "rotation": [
        0,
        0,
        0,
        -1
      ],
      "translation": [
        -3.999999761581421,
        0.5533373951911926,
        0.449748158454895
      ],
      "name": "Left_Forearm-Local",
      "scale": [
        1,
        1,
        1
      ]
    },
    {
      "children": [15],
      "rotation": [
        -0.7071068286895752,
        0,
        0,
        0.7071068286895752
      ],
      "translation": [
        -7.999998092651367,
        0,
        -0
      ],
      "name": "Left_Hand-Global",
      "scale": [
        1,
        1,
        1
      ]
    },
    {
      "rotation": [
        0,
        0,
        0,
        -1
      ],
      "translation": [
        -5,
        0,
        -0.5000002384185791
      ],
      "name": "Left_Hand-Local",
      "scale": [
        1,
        1,
        1
      ]
    },
    {
      "children": [
        17,
        18
      ],
      "rotation": [
        0,
        0,
        0,
        1
      ],
      "translation": [
        7.260709285736084,
        8.94572639465332,
        0.04383039474487305
      ],
      "name": "Right_Arm-Global",
      "scale": [
        1,
        1,
        1
      ]
    },
    {
      "rotation": [
        0,
        0,
        0,
        1
      ],
      "translation": [
        3.999999761581421,
        1.5,
        0
      ],
      "name": "Right_Arm-Local",
      "scale": [
        1,
        1,
        1
      ]
    },
    {
      "children": [
        19,
        20
      ],
      "rotation": [
        0,
        0,
        0,
        1
      ],
      "translation": [
        11,
        0,
        -0.5
      ],
      "name": "Right_Forearm-Global",
      "scale": [
        1,
        1,
        1
      ]
    },
    {
      "rotation": [
        0,
        0,
        0,
        1
      ],
      "translation": [
        3,
        0.5565102696418762,
        0.446826696395874
      ],
      "name": "Right_Forearm-Local",
      "scale": [
        1,
        1,
        1
      ]
    },
    {
      "children": [
        21,
        22
      ],
      "rotation": [
        -0.7071068286895752,
        0,
        0,
        0.7071068286895752
      ],
      "translation": [
        8,
        0,
        -0
      ],
      "name": "Right_Hand-Global",
      "scale": [
        1,
        1,
        1
      ]
    },
    {
      "rotation": [
        0,
        0,
        0,
        1
      ],
      "translation": [
        5,
        0,
        -0.5000002384185791
      ],
      "name": "Right_Hand-Local",
      "scale": [
        1,
        1,
        1
      ]
    },
    {
      "children": [
        23,
        24,
        28
      ],
      "rotation": [
        0.70710688829422,
        -8.148766283966324E-8,
        8.148760599624438E-8,
        0.7071067690849304
      ],
      "translation": [
        1.7505931854248047,
        -0.5676355361938477,
        -0.3278388977050781
      ],
      "name": "Equip_Right_Hand-Global",
      "scale": [
        1,
        1,
        1
      ]
    },
    {
      "rotation": [
        0,
        0,
        0,
        1
      ],
      "translation": [
        0,
        0.5,
        -4.5
      ],
      "name": "Equip_Right_Hand-Local",
      "scale": [
        1,
        1,
        1
      ],
      "mesh": 0
    },
    {
      "children": [
        25,
        26
      ],
      "rotation": [
        0,
        0,
        0,
        1
      ],
      "translation": [
        -0,
        0,
        1.4816956520080566
      ],
      "name": "Handle-Global",
      "scale": [
        1,
        1,
        1
      ]
    },
    {
      "rotation": [
        0,
        0,
        0,
        1
      ],
      "translation": [
        0,
        0.5,
        1.5
      ],
      "name": "Handle-Local",
      "scale": [
        1,
        1,
        1
      ],
      "mesh": 1
    },
    {
      "children": [27],
      "rotation": [
        0,
        0,
        0,
        1
      ],
      "translation": [
        -0,
        0,
        3
      ],
      "name": "blade-Global",
      "scale": [
        1,
        1,
        1
      ]
    },
    {
      "rotation": [
        0,
        0,
        0,
        1
      ],
      "translation": [
        0,
        0,
        16.00000762939453
      ],
      "name": "blade-Local",
      "scale": [
        1,
        1,
        1
      ],
      "mesh": 2
    },
    {
      "children": [29],
      "rotation": [
        0,
        0,
        0,
        1
      ],
      "translation": [
        -2.2737367544323206E-13,
        -8.53910023579374E-7,
        30
      ],
      "name": "Equip_Spawn-Global",
      "scale": [
        1,
        1,
        1
      ]
    },
    {
      "rotation": [
        0,
        0,
        0,
        1
      ],
      "translation": [
        0,
        0,
        0
      ],
      "name": "Equip_Spawn-Local",
      "scale": [
        1,
        1,
        1
      ]
    },
    {
      "children": [31],
      "rotation": [
        0,
        0,
        0,
        1
      ],
      "translation": [
        -0.008239611983299255,
        10.053176879882812,
        0.08920606225728989
      ],
      "name": "Head-Global",
      "scale": [
        1,
        1,
        1
      ]
    },
    {
      "rotation": [
        0,
        0,
        0,
        1
      ],
      "translation": [
        -5.7220458984375E-6,
        10.999994277954102,
        0
      ],
      "name": "Head-Local",
      "scale": [
        1,
        1,
        1
      ]
    },
    {
      "children": [
        33,
        34
      ],
      "rotation": [
        0,
        0,
        0,
        1
      ],
      "translation": [
        4,
        -0.5,
        -0
      ],
      "name": "Right_Thigh-Global",
      "scale": [
        1,
        1,
        1
      ]
    },
    {
      "rotation": [
        0,
        0,
        0,
        1
      ],
      "translation": [
        -0.05321788787841797,
        -6,
        -0.05703401565551758
      ],
      "name": "Right_Thigh-Local",
      "scale": [
        1,
        1,
        1
      ]
    },
    {
      "children": [
        35,
        36
      ],
      "rotation": [
        0,
        0,
        0,
        1
      ],
      "translation": [
        0.5,
        -12,
        -0.5
      ],
      "name": "Right_Leg-Global",
      "scale": [
        1,
        1,
        1
      ]
    },
    {
      "rotation": [
        0,
        0,
        0,
        1
      ],
      "translation": [
        -0.5000002384185791,
        -5,
        -0.5000002384185791
      ],
      "name": "Right_Leg-Local",
      "scale": [
        1,
        1,
        1
      ]
    },
    {
      "children": [37],
      "rotation": [
        0,
        0,
        0,
        1
      ],
      "translation": [
        -0,
        -10,
        0.5
      ],
      "name": "Right_Foot-Global",
      "scale": [
        1,
        1,
        1
      ]
    },
    {
      "rotation": [
        0,
        0,
        0,
        1
      ],
      "translation": [
        0,
        -0.5000001192092896,
        2.000000238418579
      ],
      "name": "Right_Foot-Local",
      "scale": [
        1,
        1,
        1
      ]
    },
    {
      "children": [
        39,
        40
      ],
      "rotation": [
        0,
        0,
        0,
        1
      ],
      "translation": [
        -4,
        -0.5,
        -0
      ],
      "name": "Left_Thigh-Global",
      "scale": [
        1,
        1,
        1
      ]
    },
    {
      "rotation": [
        0,
        0,
        0,
        -1
      ],
      "translation": [
        0.05242013931274414,
        -6,
        -0.05489158630371094
      ],
      "name": "Left_Thigh-Local",
      "scale": [
        1,
        1,
        1
      ]
    },
    {
      "children": [
        41,
        42
      ],
      "rotation": [
        0,
        0,
        0,
        1
      ],
      "translation": [
        -0.5,
        -12,
        -0.5
      ],
      "name": "Left_Leg-Global",
      "scale": [
        1,
        1,
        1
      ]
    },
    {
      "rotation": [
        0,
        0,
        0,
        -1
      ],
      "translation": [
        -0.5000002384185791,
        -5,
        -0.5000002384185791
      ],
      "name": "Left_Leg-Local",
      "scale": [
        1,
        1,
        1
      ]
    },
    {
      "children": [43],
      "rotation": [
        0,
        0,
        0,
        1
      ],
      "translation": [
        0,
        -10,
        0.5
      ],
      "name": "Left_Foot-Global",
      "scale": [
        1,
        1,
        1
      ]
    },
    {
      "rotation": [
        0,
        0,
        0,
        -1
      ],
      "translation": [
        0,
        -0.5000001192092896,
        2.000000238418579
      ],
      "name": "Left_Foot-Local",
      "scale": [
        1,
        1,
        1
      ]
    }
  ],
  "materials": [
    {
      "name": "Handle2-Material",
      "emissiveTexture": {
        "index": 1,
        "texCoord": 1
      },
      "pbrMetallicRoughness": {
        "baseColorTexture": {"index": 0},
        "metallicFactor": 0,
        "roughnessFactor": 1
      },
      "emissiveFactor": [
        1,
        1,
        1
      ]
    },
    {
      "name": "Guard-Material",
      "emissiveTexture": {
        "index": 3,
        "texCoord": 1
      },
      "pbrMetallicRoughness": {
        "baseColorTexture": {"index": 2},
        "metallicFactor": 0,
        "roughnessFactor": 1
      },
      "emissiveFactor": [
        1,
        1,
        1
      ]
    },
    {
      "name": "Top-Material",
      "emissiveTexture": {
        "index": 5,
        "texCoord": 1
      },
      "pbrMetallicRoughness": {
        "baseColorTexture": {"index": 4},
        "metallicFactor": 0,
        "roughnessFactor": 1
      },
      "emissiveFactor": [
        1,
        1,
        1
      ]
    }
  ],
  "animations": [],
  "scenes": [{"nodes": [0]}],
  "asset": {
    "generator": "VoxEdit Beta 935def85",
    "version": "2.0"
  },
  "meshes": [
    {
      "primitives": [{
        "mode": 4,
        "material": 0,
        "attributes": {
          "POSITION": 0,
          "TEXCOORD_1": 3,
          "TEXCOORD_0": 2,
          "NORMAL": 1
        }
      }],
      "name": "Handle2-Mesh"
    },
    {
      "primitives": [{
        "mode": 4,
        "material": 1,
        "attributes": {
          "POSITION": 4,
          "TEXCOORD_1": 7,
          "TEXCOORD_0": 6,
          "NORMAL": 5
        }
      }],
      "name": "Guard-Mesh"
    },
    {
      "primitives": [{
        "mode": 4,
        "material": 2,
        "attributes": {
          "POSITION": 8,
          "TEXCOORD_1": 11,
          "TEXCOORD_0": 10,
          "NORMAL": 9
        }
      }],
      "name": "Top-Mesh"
    }
  ]
}