{
  "images": [
    {"uri": "data:image/png;base64,"},
    {"uri": "data:image/png;base64,"},
    {"uri": "data:image/png;base64,"},
    {"uri": "data:image/png;base64,"},
    {"uri": "data:image/png;base64,"},
    {"uri": "data:image/png;base64,"},
    {"uri": "data:image/png;base64,"},
    {"uri": "data:image/png;base64,"},
    {"uri": "data:image/png;base64,"},
    {"uri": "data:image/png;base64,"}
  ],
  "accessors": [
    {
      "componentType": 5126,
      "min": [
        -16,
        -5,
        -32
      ],
      "byteOffset": 0,
      "bufferView": 0,
      "max": [
        16,
        5,
        32
      ],
      "count": 1032,
      "type": "VEC3"
    },
    {
      "componentType": 5126,
      "byteOffset": 0,
      "bufferView": 1,
      "count": 1032,
      "type": "VEC3"
    },
    {
      "componentType": 5126,
      "byteOffset": 0,
      "bufferView": 2,
      "count": 1032,
      "type": "VEC2"
    },
    {
      "componentType": 5126,
      "byteOffset": 0,
      "bufferView": 2,
      "count": 1032,
      "type": "VEC2"
    },
    {
      "componentType": 5126,
      "min": [
        -2.999999761581421,
        -17,
        -8.5
      ],
      "byteOffset": 0,
      "bufferView": 3,
      "max": [
        2.999999761581421,
        17,
        8.5
      ],
      "count": 378,
      "type": "VEC3"
    },
    {
      "componentType": 5126,
      "byteOffset": 0,
      "bufferView": 4,
      "count": 378,
      "type": "VEC3"
    },
    {
      "componentType": 5126,
      "byteOffset": 0,
      "bufferView": 5,
      "count": 378,
      "type": "VEC2"
    },
    {
      "componentType": 5126,
      "byteOffset": 0,
      "bufferView": 5,
      "count": 378,
      "type": "VEC2"
    },
    {
      "componentType": 5126,
      "min": [
        -2,
        -6.499999523162842,
        -8.5
      ],
      "byteOffset": 0,
      "bufferView": 6,
      "max": [
        2,
        6.499999523162842,
        8.5
      ],
      "count": 276,
      "type": "VEC3"
    },
    {
      "componentType": 5126,
      "byteOffset": 0,
      "bufferView": 7,
      "count": 276,
      "type": "VEC3"
    },
    {
      "componentType": 5126,
      "byteOffset": 0,
      "bufferView": 8,
      "count": 276,
      "type": "VEC2"
    },
    {
      "componentType": 5126,
      "byteOffset": 0,
      "bufferView": 8,
      "count": 276,
      "type": "VEC2"
    },
    {
      "componentType": 5126,
      "min": [
        -2,
        -13.999999046325684,
        -17.5
      ],
      "byteOffset": 0,
      "bufferView": 9,
      "max": [
        2,
        13.999999046325684,
        17.5
      ],
      "count": 888,
      "type": "VEC3"
    },
    {
      "componentType": 5126,
      "byteOffset": 0,
      "bufferView": 10,
      "count": 888,
      "type": "VEC3"
    },
    {
      "componentType": 5126,
      "byteOffset": 0,
      "bufferView": 11,
      "count": 888,
      "type": "VEC2"
    },
    {
      "componentType": 5126,
      "byteOffset": 0,
      "bufferView": 11,
      "count": 888,
      "type": "VEC2"
    },
    {
      "componentType": 5126,
      "min": [
        -2,
        -13.999999046325684,
        -17.5
      ],
      "byteOffset": 0,
      "bufferView": 12,
      "max": [
        2,
        13.999999046325684,
        17.5
      ],
      "count": 888,
      "type": "VEC3"
    },
    {
      "componentType": 5126,
      "byteOffset": 0,
      "bufferView": 13,
      "count": 888,
      "type": "VEC3"
    },
    {
      "componentType": 5126,
      "byteOffset": 0,
      "bufferView": 14,
      "count": 888,
      "type": "VEC2"
    },
    {
      "componentType": 5126,
      "byteOffset": 0,
      "bufferView": 14,
      "count": 888,
      "type": "VEC2"
    }
  ],
  "textures": [
    {
      "source": 0,
      "sampler": 0
    },
    {
      "source": 1,
      "sampler": 0
    },
    {
      "source": 2,
      "sampler": 0
    },
    {
      "source": 3,
      "sampler": 0
    },
    {
      "source": 4,
      "sampler": 0
    },
    {
      "source": 5,
      "sampler": 0
    },
    {
      "source": 6,
      "sampler": 0
    },
    {
      "source": 7,
      "sampler": 0
    },
    {
      "source": 8,
      "sampler": 0
    },
    {
      "source": 9,
      "sampler": 0
    }
  ],
  "buffers": [
    {
      "byteLength": 12384,
      "uri": "data:application/octet-stream;base64,"
    },
    {
      "byteLength": 12384,
      "uri": "data:application/octet-stream;base64,"
    },
    {
      "byteLength": 8256,
      "uri": "data:application/octet-stream;base64,"
    },
    {
      "byteLength": 4536,
      "uri": "data:application/octet-stream;base64,"
    },
    {
      "byteLength": 4536,
      "uri": "data:application/octet-stream;base64,"
    },
    {
      "byteLength": 3024,
      "uri": "data:application/octet-stream;base64,"
    },
    {
      "byteLength": 3312,
      "uri": "data:application/octet-stream;base64,"
    },
    {
      "byteLength": 3312,
      "uri": "data:application/octet-stream;base64,"
    },
    {
      "byteLength": 2208,
      "uri": "data:application/octet-stream;base64,"
    },
    {
      "byteLength": 10656,
      "uri": "data:application/octet-stream;base64,"
    },
    {
      "byteLength": 10656,
      "uri": "data:application/octet-stream;base64,"
    },
    {
      "byteLength": 7104,
      "uri": "data:application/octet-stream;base64,"
    },
    {
      "byteLength": 10656,
      "uri": "data:application/octet-stream;base64,"
    },
    {
      "byteLength": 10656,
      "uri": "data:application/octet-stream;base64,"
    },
    {
      "byteLength": 7104,
      "uri": "data:application/octet-stream;base64,"
    }
  ],
  "bufferViews": [
    {
      "byteOffset": 0,
      "byteLength": 12384,
      "buffer": 0,
      "byteStride": 12,
      "target": 34962
    },
    {
      "byteOffset": 0,
      "byteLength": 12384,
      "buffer": 1,
      "byteStride": 12,
      "target": 34962
    },
    {
      "byteOffset": 0,
      "byteLength": 8256,
      "buffer": 2,
      "byteStride": 8,
      "target": 34962
    },
    {
      "byteOffset": 0,
      "byteLength": 4536,
      "buffer": 3,
      "byteStride": 12,
      "target": 34962
    },
    {
      "byteOffset": 0,
      "byteLength": 4536,
      "buffer": 4,
      "byteStride": 12,
      "target": 34962
    },
    {
      "byteOffset": 0,
      "byteLength": 3024,
      "buffer": 5,
      "byteStride": 8,
      "target": 34962
    },
    {
      "byteOffset": 0,
      "byteLength": 3312,
      "buffer": 6,
      "byteStride": 12,
      "target": 34962
    },
    {
      "byteOffset": 0,
      "byteLength": 3312,
      "buffer": 7,
      "byteStride": 12,
      "target": 34962
    },
    {
      "byteOffset": 0,
      "byteLength": 2208,
      "buffer": 8,
      "byteStride": 8,
      "target": 34962
    },
    {
      "byteOffset": 0,
      "byteLength": 10656,
      "buffer": 9,
      "byteStride": 12,
      "target": 34962
    },
    {
      "byteOffset": 0,
      "byteLength": 10656,
      "buffer": 10,
      "byteStride": 12,
      "target": 34962
    },
    {
      "byteOffset": 0,
      "byteLength": 7104,
      "buffer": 11,
      "byteStride": 8,
      "target": 34962
    },
    {
      "byteOffset": 0,
      "byteLength": 10656,
      "buffer": 12,
      "byteStride": 12,
      "target": 34962
    },
    {
      "byteOffset": 0,
      "byteLength": 10656,
      "buffer": 13,
      "byteStride": 12,
      "target": 34962
    },
    {
      "byteOffset": 0,
      "byteLength": 7104,
      "buffer": 14,
      "byteStride": 8,
      "target": 34962
    }
  ],
  "samplers": [{
    "minFilter": 9728,
    "wrapT": 33071,
    "wrapS": 33071,
    "magFilter": 9728
  }],
  "scene": 0,
  "nodes": [
    {
      "children": [
        1,
        2
      ],
      "rotation": [
        0,
        -1,
        0,
        -4.371138828673793E-8
      ],
      "translation": [
        0,
        0,
        0
      ],
      "name": "Root-Global",
      "scale": [
        -1,
        1,
        1
      ]
    },
    {
      "rotation": [
        0,
        0,
        0,
        1
      ],
      "translation": [
        0,
        0,
        0
      ],
      "name": "Root-Local",
      "scale": [
        1,
        1,
        1
      ]
    },
    {
      "children": [
        3,
        4,
        6,
        8,
        10
      ],
      "rotation": [
        0,
        0,
        0,
        1
      ],
      "translation": [
        0,
        0,
        0
      ],
      "name": "base-Global",
      "scale": [
        1,
        1,
        1
      ]
    },
    {
      "rotation": [
        0,
        0,
        0,
        1
      ],
      "translation": [
        0,
        5,
        -0.0289306640625
      ],
      "name": "base-Local",
      "scale": [
        1,
        1,
        1
      ],
      "mesh": 0
    },
    {
      "children": [5],
      "rotation": [
        -0.1328294724225998,
        0,
        0,
        -0.9911389350891113
      ],
      "translation": [
        0,
        9.983866691589355,
        17.949607849121094
      ],
      "name": "head0-Global",
      "scale": [
        1,
        1,
        1
      ]
    },
    {
      "rotation": [
        0,
        0,
        0,
        1
      ],
      "translation": [
        -0.012740492820739746,
        16.970958709716797,
        6.516146183013916
      ],
      "name": "head0-Local",
      "scale": [
        1,
        1,
        1
      ],
      "mesh": 1
    },
    {
      "children": [7],
      "rotation": [
        0,
        0,
        0,
        1
      ],
      "translation": [
        0,
        2.1115970611572266,
        -22.48415184020996
      ],
      "name": "tail0-Global",
      "scale": [
        1,
        1,
        1
      ]
    },
    {
      "rotation": [
        0,
        0,
        0,
        1
      ],
      "translation": [
        -0.012740612030029297,
        14.518054962158203,
        -8.506551742553711
      ],
      "name": "tail0-Local",
      "scale": [
        1,
        1,
        1
      ],
      "mesh": 2
    },
    {
      "children": [9],
      "rotation": [
        -0.08715573698282242,
        -0,
        0,
        0.9961947202682495
      ],
      "translation": [
        -16,
        5,
        15.314790725708008
      ],
      "name": "wingR-Global",
      "scale": [
        1,
        1,
        1
      ]
    },
    {
      "rotation": [
        0,
        0,
        0,
        1
      ],
      "translation": [
        0.03689217567443848,
        14.008054733276367,
        -17.505456924438477
      ],
      "name": "wingR-Local",
      "scale": [
        1,
        1,
        1
      ],
      "mesh": 3
    },
    {
      "children": [11],
      "rotation": [
        -0.08715573698282242,
        -0,
        0,
        0.9961947202682495
      ],
      "translation": [
        16,
        5,
        15.314790725708008
      ],
      "name": "wingL-Global",
      "scale": [
        1,
        1,
        1
      ]
    },
    {
      "rotation": [
        0,
        0,
        0,
        1
      ],
      "translation": [
        0.03689217567443848,
        14.008054733276367,
        -17.505456924438477
      ],
      "name": "wingL-Local",
      "scale": [
        1,
        1,
        1
      ],
      "mesh": 4
    }
  ],
  "materials": [
    {
      "name": "unicorn-Material",
      "emissiveTexture": {
        "index": 1,
        "texCoord": 1
      },
      "pbrMetallicRoughness": {
        "baseColorTexture": {"index": 0},
        "metallicFactor": 0,
        "roughnessFactor": 1
      },
      "emissiveFactor": [
        1,
        1,
        1
      ]
    },
    {
      "name": "head-Material",
      "emissiveTexture": {
        "index": 3,
        "texCoord": 1
      },
      "pbrMetallicRoughness": {
        "baseColorTexture": {"index": 2},
        "metallicFactor": 0,
        "roughnessFactor": 1
      },
      "emissiveFactor": [
        1,
        1,
        1
      ]
    },
    {
      "name": "tail-Material",
      "emissiveTexture": {
        "index": 5,
        "texCoord": 1
      },
      "pbrMetallicRoughness": {
        "baseColorTexture": {"index": 4},
        "metallicFactor": 0,
        "roughnessFactor": 1
      },
      "emissiveFactor": [
        1,
        1,
        1
      ]
    },
    {
      "name": "wing-Material",
      "emissiveTexture": {
        "index": 7,
        "texCoord": 1
      },
      "pbrMetallicRoughness": {
        "baseColorTexture": {"index": 6},
        "metallicFactor": 0,
        "roughnessFactor": 1
      },
      "emissiveFactor": [
        1,
        1,
        1
      ]
    },
    {
      "name": "wing-Material",
      "emissiveTexture": {
        "index": 9,
        "texCoord": 1
      },
      "pbrMetallicRoughness": {
        "baseColorTexture": {"index": 8},
        "metallicFactor": 0,
        "roughnessFactor": 1
      },
      "emissiveFactor": [
        1,
        1,
        1
      ]
    }
  ],
  "animations": [],
  "scenes": [{"nodes": [0]}],
  "asset": {
    "generator": "VoxEdit Beta 5e8a22ed",
    "version": "2.0"
  },
  "meshes": [
    {
      "primitives": [{
        "mode": 4,
        "material": 0,
        "attributes": {
          "POSITION": 0,
          "TEXCOORD_1": 3,
          "TEXCOORD_0": 2,
          "NORMAL": 1
        }
      }],
      "name": "unicorn-Mesh"
    },
    {
      "primitives": [{
        "mode": 4,
        "material": 1,
        "attributes": {
          "POSITION": 4,
          "TEXCOORD_1": 7,
          "TEXCOORD_0": 6,
          "NORMAL": 5
        }
      }],
      "name": "head-Mesh"
    },
    {
      "primitives": [{
        "mode": 4,
        "material": 2,
        "attributes": {
          "POSITION": 8,
          "TEXCOORD_1": 11,
          "TEXCOORD_0": 10,
          "NORMAL": 9
        }
      }],
      "name": "tail-Mesh"
    },
    {
      "primitives": [{
        "mode": 4,
        "material": 3,
        "attributes": {
          "POSITION": 12,
          "TEXCOORD_1": 15,
          "TEXCOORD_0": 14,
          "NORMAL": 13
        }
      }],
      "name": "wing-Mesh"
    },
    {
      "primitives": [{
        "mode": 4,
        "material": 4,
        "attributes": {
          "POSITION": 16,
          "TEXCOORD_1": 19,
          "TEXCOORD_0": 18,
          "NORMAL": 17
        }
      }],
      "name": "wing-Mesh"
    }
  ]
}