<svg xmlns="http://www.w3.org/2000/svg" width="22" height="22" viewBox="0 0 22 22"><defs><style>.a{fill:none;}.b{fill:#a0a4a7;}</style></defs><g transform="translate(2565 -8085)"><rect class="a" width="22" height="22" transform="translate(-2565 8085)"/><g transform="translate(0.748 0.361)"><g transform="translate(-2564.088 8091.136)"><path class="b" d="M5.108,3.091a.547.547,0,0,0-.774,0L3.091,4.334a.547.547,0,1,0,.774.774L5.108,3.865A.547.547,0,0,0,5.108,3.091Zm0,0" transform="translate(-0.217 -0.217)"/><path class="b" d="M5.677,4.434,4.434,5.677a.547.547,0,1,0,.774.774L6.451,5.208a.547.547,0,0,0-.774-.774Zm0,0" transform="translate(-0.317 -0.317)"/><path class="b" d="M15.554,3.091a.547.547,0,0,0-.774,0L13.537,4.334a.547.547,0,1,0,.774.774l1.244-1.243A.547.547,0,0,0,15.554,3.091Zm0,0" transform="translate(-0.992 -0.217)"/><path class="b" d="M16.123,4.434,14.88,5.677a.547.547,0,1,0,.774.774L16.9,5.208a.547.547,0,0,0-.774-.774Zm0,0" transform="translate(-1.092 -0.317)"/><path class="b" d="M18.678,2.306a.547.547,0,0,0-.547-.547h-.389A4.5,4.5,0,0,0,14.175,0H4.5A4.5,4.5,0,0,0,.936,1.758H.547a.547.547,0,0,0-.216,1.05A4.5,4.5,0,1,0,9.007,4.5V3.771a.332.332,0,1,1,.664,0V4.5a4.5,4.5,0,1,0,8.676-1.7A.547.547,0,0,0,18.678,2.306ZM7.913,4.5A3.409,3.409,0,1,1,4.5,1.094H6.811a1.1,1.1,0,0,1,1.1,1.1ZM9.339,2.344a1.425,1.425,0,0,0-.332.039V2.2a2.181,2.181,0,0,0-.3-1.1H9.969a2.181,2.181,0,0,0-.3,1.1v.188A1.425,1.425,0,0,0,9.339,2.344Zm4.836,5.568A3.413,3.413,0,0,1,10.766,4.5V2.2a1.1,1.1,0,0,1,1.1-1.1h2.308a3.409,3.409,0,1,1,0,6.818Zm0,0"/></g></g></g></svg>