<svg xmlns="http://www.w3.org/2000/svg" width="50" height="50" viewBox="0 0 50 50"><defs><style>.a{fill:#1d232a;}.a,.d{opacity:0.7;}.b{fill:#fa5c66;}.c{fill:#f53241;}.d{fill:#fff;mix-blend-mode:soft-light;isolation:isolate;}</style></defs><g transform="translate(-1287 -32)"><path class="a" d="M-8966-3430v-5h-5v-30h5v-5h30v40Zm30-5v-30h5v30Z" transform="translate(10263 3507)"/><rect class="b" width="30" height="5" transform="translate(1297 32)"/><rect class="c" width="30" height="5" transform="translate(1297 77)"/><rect class="c" width="5" height="5" transform="translate(1292 37)"/><rect class="b" width="5" height="5" transform="translate(1327 37)"/><rect class="c" width="5" height="5" transform="translate(1292 72)"/><rect class="c" width="5" height="5" transform="translate(1327 72)"/><rect class="c" width="30" height="5" transform="translate(1292 42) rotate(90)"/><rect class="b" width="30" height="5" transform="translate(1337 42) rotate(90)"/><g transform="translate(1301 43)"><path class="b" d="M270.739,1226.005a21.562,21.562,0,0,0-10.521-2.906v28a.906.906,0,0,0,.489-.145c5.125-3.321,7.85-6.309,9.192-10.036s1.32-8.03,1.32-14.093A.935.935,0,0,0,270.739,1226.005Z" transform="translate(-249.219 -1223.099)"/><path class="c" d="M252.53,1226.005a.937.937,0,0,0-.478.82c0,6.063-.026,10.364,1.316,14.092s4.061,6.716,9.194,10.037a.906.906,0,0,0,.489.145v-28A21.59,21.59,0,0,0,252.53,1226.005Z" transform="translate(-252.052 -1223.099)"/></g><path class="d" d="M-9117.692-3638.291h5v-5h30v10.117a78.822,78.822,0,0,0-35,20.654Zm35,0h5v3.78c-1.567.382-3.239.821-5,1.336Z" transform="translate(10409.692 3680.29)"/></g></svg>