<svg xmlns="http://www.w3.org/2000/svg" width="22" height="22" viewBox="0 0 22 22"><defs><style>.a{fill:none;}.b{fill:#a0a4a7;}</style></defs><g transform="translate(2565 -8085)"><rect class="a" width="22" height="22" transform="translate(-2565 8085)"/><g transform="translate(-2561.684 8088.316)"><path class="b" d="M15.236.132A.45.45,0,0,0,14.854,0L10.4.641A.45.45,0,0,0,10.114.8L4.182,7.952a1.35,1.35,0,0,0-1.5.28l-.637.637a.45.45,0,0,0,0,.637L3,10.461l-1.46,1.46H1.351A1.352,1.352,0,0,0,0,13.271v.746a1.352,1.352,0,0,0,1.351,1.351H2.1a1.352,1.352,0,0,0,1.351-1.351v-.186l1.46-1.46.955.955a.45.45,0,0,0,.637,0l.637-.637a1.35,1.35,0,0,0,.28-1.5l7.153-5.932a.45.45,0,0,0,.158-.283L15.363.514A.45.45,0,0,0,15.236.132ZM2.547,14.017a.451.451,0,0,1-.45.45H1.351a.451.451,0,0,1-.45-.45v-.746a.451.451,0,0,1,.45-.45h.186l1.01,1.01ZM3,13.007l-.637-.637L3.634,11.1l.637.637Zm3.5-.955-.318.318L3,9.187l.318-.318a.45.45,0,0,1,.637,0L6.5,11.416A.45.45,0,0,1,6.5,12.052ZM13.86,4.672,6.846,10.489l-.665-.665,5.235-5.235a.45.45,0,0,0-.637-.637L5.544,9.187l-.665-.665L10.7,1.508,14.387.981Z"/></g></g></svg>