<svg xmlns="http://www.w3.org/2000/svg" width="22" height="22" viewBox="0 0 22 22"><defs><style>.a{fill:none;}.b{fill:#a0a4a7;}</style></defs><g transform="translate(2565 -8085)"><rect class="a" width="22" height="22" transform="translate(-2565 8085)"/><path class="b" d="M20.175,7.665a.741.741,0,0,0-.437-.675L18.2,6.3l1.534-.689a.74.74,0,0,0,0-1.35l-6.35-2.851L13.372,1.4,10.391.066a.74.74,0,0,0-.606,0h0L.437,4.262a.74.74,0,0,0,0,1.351L1.971,6.3.437,6.99a.74.74,0,0,0,0,1.35l1.578.709L.437,9.757a.74.74,0,0,0,0,1.35l9.348,4.2a.74.74,0,0,0,.606,0l9.348-4.2a.74.74,0,0,0,0-1.35L18.16,9.049l1.579-.709A.741.741,0,0,0,20.175,7.665ZM7.056,2.586l1.607.721-1.727.775L5.352,3.351Zm3.05,1.369,1.748.785-1.748.808L8.358,4.74Zm4.735-.6-1.565.723-1.727-.775,1.589-.713ZM8.7,6.2l-2,.926L4.87,6.306l2.059-.924Zm1.409.651,1.965.908-1.983.89L8.123,7.767Zm3.394.266L11.515,6.2l1.768-.817,2.041.916ZM16.767,5.65l-2.062-.926L16.271,4l2.085.936ZM10.088,1.226l1.607.721-1.588.713L8.5,1.939ZM3.923,3.993l1.584.732-2.08.934L1.819,4.937Zm14.433,6.44-8.268,3.712L1.819,10.433,3.459,9.7l6.326,2.84a.741.741,0,0,0,.606,0L16.717,9.7Zm-8.268.944L1.819,7.665l1.6-.716,6.37,2.859a.739.739,0,0,0,.606,0l6.37-2.859,1.6.716Zm0,0" transform="translate(-2564.088 8088.315)"/></g></svg>