<svg xmlns="http://www.w3.org/2000/svg" width="50" height="50" viewBox="0 0 50 50">
  <g id="Luck_Gem" transform="translate(-1287 -32)">
    <path id="Dark_Back" d="M-8966-3430v-5h-5v-30h5v-5h30v40Zm30-5v-30h5v30Z" transform="translate(10263 3507)" fill="#1d232a" opacity="0.7"/>
    <g id="Frame">
      <rect id="Rectángulo_793" data-name="Rectángulo 793" width="30" height="5" transform="translate(1297 32)" fill="#13ea3c"/>
      <rect id="Rectángulo_796" data-name="Rectángulo 796" width="30" height="5" transform="translate(1297 77)" fill="#04c940"/>
      <rect id="Rectángulo_795" data-name="Rectángulo 795" width="5" height="5" transform="translate(1292 37)" fill="#04c940"/>
      <rect id="Rectángulo_800" data-name="Rectángulo 800" width="5" height="5" transform="translate(1327 37)" fill="#13ea3c"/>
      <rect id="Rectángulo_798" data-name="Rectángulo 798" width="5" height="5" transform="translate(1292 72)" fill="#04c940"/>
      <rect id="Rectángulo_799" data-name="Rectángulo 799" width="5" height="5" transform="translate(1327 72)" fill="#04c940"/>
      <rect id="Rectángulo_794" data-name="Rectángulo 794" width="30" height="5" transform="translate(1292 42) rotate(90)" fill="#04c940"/>
      <rect id="Rectángulo_797" data-name="Rectángulo 797" width="30" height="5" transform="translate(1337 42) rotate(90)" fill="#13ea3c"/>
    </g>
    <g id="Luck_Icon" transform="translate(1299 44)">
      <path id="Trazado_482" data-name="Trazado 482" d="M299.4,1234.572c2.243,1.5,5.592,1.319,6.475,1.319a2.953,2.953,0,0,1,1.737.84h-.01l.006,0,.022.012h2.624v-2.624h0l-.013-.022a2.946,2.946,0,0,1-.841-1.735c0-.842.166-3.917-1.109-6.144a5.819,5.819,0,0,0-.871-1.127c-2.375-2.376-4.314-1.04-5.071-.283-1.021,1.019-.73,1.56-1.6,2.43s-1.411.579-2.431,1.6c-.758.758-2.094,2.7.283,5.071A5.588,5.588,0,0,0,299.4,1234.572Z" transform="translate(-297.251 -1223.748)" fill="#13ea3c"/>
      <path id="Trazado_483" data-name="Trazado 483" d="M299.4,1235.257c2.243-1.5,5.592-1.319,6.475-1.319a2.952,2.952,0,0,0,1.737-.841h-.01l.006,0,.022-.012h2.624v2.624h0l-.013.021a2.952,2.952,0,0,0-.841,1.737c0,.841.166,3.916-1.109,6.144a5.819,5.819,0,0,1-.871,1.127c-2.375,2.375-4.314,1.041-5.071.283-1.021-1.019-.73-1.56-1.6-2.431s-1.411-.581-2.431-1.6c-.758-.758-2.094-2.7.283-5.073A5.621,5.621,0,0,1,299.4,1235.257Z" transform="translate(-297.251 -1220.081)" fill="#04c940"/>
      <path id="Trazado_484" data-name="Trazado 484" d="M317.437,1234.572c-2.241,1.5-5.591,1.319-6.474,1.319a2.953,2.953,0,0,0-1.737.84h.008l-.006,0-.021.012h-2.624v-2.624h0l.012-.022a2.946,2.946,0,0,0,.841-1.735c0-.842-.167-3.917,1.109-6.144a5.811,5.811,0,0,1,.869-1.127c2.376-2.376,4.315-1.04,5.073-.283,1.02,1.019.73,1.56,1.6,2.43s1.411.579,2.431,1.6c.758.758,2.092,2.7-.283,5.071A5.6,5.6,0,0,1,317.437,1234.572Z" transform="translate(-293.584 -1223.748)" fill="#04c940"/>
      <path id="Trazado_485" data-name="Trazado 485" d="M317.437,1235.257c-2.241-1.5-5.591-1.319-6.474-1.319a2.952,2.952,0,0,1-1.737-.841h.008l-.006,0-.021-.012h-2.624v2.624h0l.012.021a2.952,2.952,0,0,1,.841,1.737c0,.841-.167,3.916,1.109,6.144a5.811,5.811,0,0,0,.869,1.127c2.376,2.375,4.315,1.041,5.073.283,1.02-1.019.73-1.56,1.6-2.431s1.411-.581,2.431-1.6c.758-.758,2.092-2.7-.283-5.073A5.629,5.629,0,0,0,317.437,1235.257Z" transform="translate(-293.584 -1220.081)" fill="#13ea3c"/>
    </g>
    <path id="Intersección_1" data-name="Intersección 1" d="M-9117.692-3638.291h5v-5h30v10.117a78.822,78.822,0,0,0-35,20.654Zm35,0h5v3.78c-1.567.382-3.239.821-5,1.336Z" transform="translate(10409.692 3680.29)" fill="#fff" opacity="0.7" style="mix-blend-mode: soft-light;isolation: isolate"/>
  </g>
</svg>
