<svg xmlns="http://www.w3.org/2000/svg" width="50" height="50" viewBox="0 0 50 50"><defs><style>.a{fill:#1d232a;}.a,.i{opacity:0.7;}.b{fill:#ee17c9;}.c{fill:#ab0f9b;}.d{fill:#ab0e9b;}.e{fill:#ee12c9;}.f{fill:#c78400;}.g{fill:#f3a200;}.h,.i{fill:#fff;}.i{mix-blend-mode:soft-light;isolation:isolate;}</style></defs><g transform="translate(-1287 -32)"><path class="a" d="M-8966-3430v-5h-5v-30h5v-5h30v40Zm30-5v-30h5v30Z" transform="translate(10263 3507)"/><rect class="b" width="30" height="5" transform="translate(1297 32)"/><rect class="c" width="30" height="5" transform="translate(1297 77)"/><rect class="c" width="5" height="5" transform="translate(1292 37)"/><rect class="b" width="5" height="5" transform="translate(1327 37)"/><rect class="c" width="5" height="5" transform="translate(1292 72)"/><rect class="c" width="5" height="5" transform="translate(1327 72)"/><rect class="c" width="30" height="5" transform="translate(1292 42) rotate(90)"/><rect class="b" width="30" height="5" transform="translate(1337 42) rotate(90)"/><g transform="translate(1300 43)"><path class="d" d="M360.59,1241.637a11.51,11.51,0,0,1-11.764-11.236c0-.066,0-.132,0-.2a10.964,10.964,0,0,1,1.613-6.025,11.328,11.328,0,0,0-4.1,15.78,11.682,11.682,0,0,0,4.352,4.129,32.689,32.689,0,0,0,11.96,0h0a12.072,12.072,0,0,0,4.314-4.134A12.305,12.305,0,0,1,360.59,1241.637Z" transform="translate(-344.663 -1222.47)"/><path class="e" d="M355.387,1222.982a12.272,12.272,0,0,0-6.227,1.692,11.169,11.169,0,0,0-1.788,6.046,11.811,11.811,0,0,0,12.069,11.534,12.225,12.225,0,0,0,6.235-1.761,11.185,11.185,0,0,0,1.718-5.943,11.79,11.79,0,0,0-12-11.568Z" transform="translate(-343.392 -1222.982)"/><path class="f" d="M355.513,1242.823a46.144,46.144,0,0,1-7.1-.575,1.49,1.49,0,0,1-1.286-1.681l.007-.042a1.6,1.6,0,0,1,1.869-1.178,40.637,40.637,0,0,0,13.01,0,1.6,1.6,0,0,1,1.871,1.178,1.485,1.485,0,0,1-1.239,1.715l-.041.007A46.114,46.114,0,0,1,355.513,1242.823Z" transform="translate(-343.512 -1215.99)"/><path class="g" d="M346.678,1240.955h19.207a1.184,1.184,0,0,1,1.2,1.167h0a1.184,1.184,0,0,1-1.2,1.167H346.678a1.184,1.184,0,0,1-1.2-1.167h0A1.184,1.184,0,0,1,346.678,1240.955Z" transform="translate(-344.281 -1215.288)"/><path class="h" d="M353.986,1227.822a3.416,3.416,0,0,1,2.076,4.424.883.883,0,0,0,.576,1.125.924.924,0,0,0,1.112-.451,3.583,3.583,0,0,1,4.676-1.728.869.869,0,0,0,1.146-.384.823.823,0,0,0-.4-1.114.805.805,0,0,0-.1-.04,3.415,3.415,0,0,1-2.076-4.426.883.883,0,0,0-.586-1.12.925.925,0,0,0-1.1.447,3.587,3.587,0,0,1-4.682,1.729.868.868,0,0,0-1.148.379.823.823,0,0,0,.391,1.115.773.773,0,0,0,.107.043Z" transform="translate(-340.565 -1222.518)"/><path class="h" d="M352.705,1228.764a2.015,2.015,0,0,1-2.517,1.263l-.056-.018a.5.5,0,0,0-.636.3l0,.014a.5.5,0,0,0,.3.651,2.029,2.029,0,0,1,1.171,2.608.5.5,0,1,0,.936.351l0-.012a2.012,2.012,0,0,1,2.513-1.261l.056.018a.5.5,0,0,0,.638-.3l0-.014a.506.506,0,0,0-.3-.651,2.029,2.029,0,0,1-1.173-2.606.509.509,0,0,0-.3-.651.5.5,0,0,0-.635.3Z" transform="translate(-342.412 -1220.65)"/></g><path class="i" d="M-9117.692-3638.291h5v-5h30v10.117a78.822,78.822,0,0,0-35,20.654Zm35,0h5v3.78c-1.567.382-3.239.821-5,1.336Z" transform="translate(10409.692 3680.29)"/></g></svg>