<svg xmlns="http://www.w3.org/2000/svg" width="50" height="50" viewBox="0 0 50 50"><defs><style>.a{fill:#1d232a;}.a,.e{opacity:0.7;}.b{fill:#ffd939;}.c{fill:#ffb32d;}.d{fill:#ffb32c;fillRule:evenodd;}.e{fill:#fff;mix-blend-mode:soft-light;isolation:isolate;}</style></defs><g transform="translate(-1287 -32)"><path class="a" d="M-8966-3430v-5h-5v-30h5v-5h30v40Zm30-5v-30h5v30Z" transform="translate(10263 3507)"/><rect class="b" width="30" height="5" transform="translate(1297 32)"/><rect class="c" width="30" height="5" transform="translate(1297 77)"/><rect class="c" width="5" height="5" transform="translate(1292 37)"/><rect class="b" width="5" height="5" transform="translate(1327 37)"/><rect class="c" width="5" height="5" transform="translate(1292 72)"/><rect class="c" width="5" height="5" transform="translate(1327 72)"/><rect class="c" width="30" height="5" transform="translate(1292 42) rotate(90)"/><rect class="b" width="30" height="5" transform="translate(1337 42) rotate(90)"/><g transform="translate(1300 42)"><g transform="translate(0 0.001)"><path class="d" d="M158.7,1237.339l14.935-16.564c.251-.28.791-.1.732.246l-1.985,11.5,9.569.085c.517,0,.808.493.5.831l-15.73,17.064c-.256.276-.791.091-.729-.252l2.207-12.086h-8.987C158.689,1238.165,158.392,1237.681,158.7,1237.339Z" transform="translate(-158.576 -1220.637)"/></g><path class="b" d="M179.524,1232.6l-9.579-.085L171.933,1221c.032-.192-.123-.322-.309-.362l-7.57,14.329h7.9l-8.2,15.619a.449.449,0,0,0,.528-.077l15.745-17.079C180.332,1233.09,180.041,1232.6,179.524,1232.6Z" transform="translate(-156.148 -1220.637)"/></g><path class="e" d="M-9117.692-3638.291h5v-5h30v10.117a78.822,78.822,0,0,0-35,20.654Zm35,0h5v3.78c-1.567.382-3.239.821-5,1.336Z" transform="translate(10409.692 3680.29)"/></g></svg>