<svg xmlns="http://www.w3.org/2000/svg" width="50" height="50" viewBox="0 0 50 50"><defs><style>.a{fill:#1d232a;}.a,.f{opacity:0.7;}.b{fill:#00cfff;}.c{fill:#0091fc;}.d{fill:#0099da;}.e{fill:#003dff;}.f{fill:#fff;mix-blend-mode:soft-light;isolation:isolate;}</style></defs><g transform="translate(-1287 -32)"><path class="a" d="M-8966-3430v-5h-5v-30h5v-5h30v40Zm30-5v-30h5v30Z" transform="translate(10263 3507)"/><rect class="b" width="30" height="5" transform="translate(1297 32)"/><rect class="c" width="30" height="5" transform="translate(1297 77)"/><rect class="c" width="5" height="5" transform="translate(1292 37)"/><rect class="b" width="5" height="5" transform="translate(1327 37)"/><rect class="c" width="5" height="5" transform="translate(1292 72)"/><rect class="c" width="5" height="5" transform="translate(1327 72)"/><rect class="c" width="30" height="5" transform="translate(1292 42) rotate(90)"/><rect class="b" width="30" height="5" transform="translate(1337 42) rotate(90)"/><g transform="translate(1297 45)"><g transform="translate(3.255)"><g transform="translate(0 9.25)"><path class="d" d="M231.228,1240.428a2.072,2.072,0,0,1-1.883,2.181c-2.417.022-4.833.009-7.25.005a.788.788,0,0,1-.351-.1c-4.913-2.978-14.087-8.55-16.655-10.114a.915.915,0,0,1-.314-1.172l.249-.513a.768.768,0,0,1,1.107-.345l1.493.939q7.024,4.421,14.044,8.851a1.74,1.74,0,0,0,.935.272c2.754-.011,5.507-.005,8.26-.005Z" transform="translate(-204.682 -1230.255)"/></g><path class="b" d="M230.918,1240.414a2.782,2.782,0,0,0-2.121-2.658c-1-.07-1.931-.205-2.921-.354-.706-.106-1.693-.187-2.1-.856-.114-.186-3.634-6.551-4.558-8.223a2.689,2.689,0,0,0-.8-.643c-.007,0-.005-.012-.012-.015-1.088-.549-7.587-4.115-7.587-4.115l-1.747,2.994-.643,1.106h0l-2.312,3.986,5.687,3.589a1.129,1.129,0,0,0,.264.177c.027.013.188.111.447.272l.474.3v0c2.259,1.412,7.947,5.009,8.791,5.528a1.178,1.178,0,0,0,.583.171c2.083.011,4.167.007,6.25.007h2.3C230.918,1241.1,230.921,1240.959,230.918,1240.414Z" transform="translate(-204.175 -1223.549)"/></g><path class="e" d="M204.584,1235.188h-1.509a.877.877,0,0,1,0-1.748h1.509a.877.877,0,0,1,0,1.748Z" transform="translate(-202.277 -1219.798)"/><path class="e" d="M209.168,1237.585h-6.093a.878.878,0,0,1,0-1.749h6.093a.878.878,0,0,1,0,1.749Z" transform="translate(-202.277 -1218.89)"/><path class="e" d="M214.759,1239.981H203.075a.878.878,0,0,1,0-1.749h11.684a.878.878,0,0,1,0,1.749Z" transform="translate(-202.277 -1217.981)"/></g><path class="f" d="M-9117.692-3638.291h5v-5h30v10.117a78.822,78.822,0,0,0-35,20.654Zm35,0h5v3.78c-1.567.382-3.239.821-5,1.336Z" transform="translate(10409.692 3680.29)"/></g></svg>